<mxfile host="app.diagrams.net" modified="2024-04-01T02:49:19.050Z" agent="Mozilla/5.0 (Macintosh; Intel Mac OS X 10_15_7) AppleWebKit/537.36 (KHTML, like Gecko) Chrome/122.0.0.0 Safari/537.36" version="24.2.1" etag="TNbaESaFUvwZr-jSvuoZ" type="github">
  <diagram name="페이지-1" id="GTR-0VH213oBCdD8Qx1t">
    <mxGraphModel>
      <root>
        <mxCell id="0" />
        <mxCell id="1" parent="0" />
      </root>
    </mxGraphModel>
  </diagram>
</mxfile>
